<?xml version="1.0" standalone="no"?><!DOCTYPE svg PUBLIC "-//W3C//DTD SVG 1.1//EN" "http://www.w3.org/Graphics/SVG/1.1/DTD/svg11.dtd"><svg t="1534949274826" class="icon" style="" viewBox="0 0 1024 1024" version="1.1" xmlns="http://www.w3.org/2000/svg" p-id="9783" xmlns:xlink="http://www.w3.org/1999/xlink" width="200" height="200"><defs><style type="text/css"></style></defs><path d="M865.8 453.5c-61.7 18.1-124.1 29.6-185 36.5 7.6-33.4 20.8-67.8 41.7-102.3 37.1-14.7 63.9-31.3 76-45.1 49.7-57 16.6-151.9 0-113.9-281.5 151.9-579.5 0-579.5 0s-49.7 19 0 113.9c21.1 14.4 42.8 26.7 64.8 37 23 35.6 37.6 71.3 46 105.9-104.5-13.2-172.2-31.9-172.2-31.9s-60.7 12.6 0 75.5c58.3 21.6 120 35.8 181.7 44.6-2.6 126.9-72 222.9-72 222.9s16.9 36.7 108.9 4c65.4-67.9 88-145.7 88.2-216.2 28.3 1 56.1 1 83.1 0.2 0.4 70.1 23.1 147.4 88.2 214.9 91.9 32.7 108.9-4 108.9-4s-68.4-94.7-71.9-220.2c96.4-11.6 168.9-31.3 193.1-46.4 60.7-37.7 20.2-100.5 0-75.4z m-412.6 42.8c-7.6-29.2-18.2-54.9-29.6-75.1 57.2 8.5 113.1 7.4 163.8 0.7-11.4 20.5-22 46.5-29.4 76-36.3 0.7-71.4 0.1-104.8-1.6z" fill="#333333" p-id="9784"></path></svg>