<?xml version="1.0" standalone="no"?><!DOCTYPE svg PUBLIC "-//W3C//DTD SVG 1.1//EN" "http://www.w3.org/Graphics/SVG/1.1/DTD/svg11.dtd"><svg t="1534949246565" class="icon" style="" viewBox="0 0 1024 1024" version="1.1" xmlns="http://www.w3.org/2000/svg" p-id="9672" xmlns:xlink="http://www.w3.org/1999/xlink" width="200" height="200"><defs><style type="text/css"></style></defs><path d="M797.282338 209.567882H638.798907c-8.149186 0-16.906521 6.446371-16.906521 16.906521 0 10.33852 6.689631 16.906521 16.906521 16.906521h114.210239l-3.892149 3.770519-248.24611 240.705072c-6.689631 6.689631-6.689631 16.906521 0 23.596152 3.284 3.284 8.514075 5.108445 11.798076 5.108445 4.865186 0 8.149186-1.459556 11.798076-5.108445l254.084333-246.421666 3.648889-3.527259v121.629647c0 8.149186 6.446371 16.906521 16.906521 16.906521 10.33852 0 16.906521-6.689631 16.906521-16.906521V224.771588c-1.824445-9.243853-9.122224-15.203706-18.730965-15.203706z" p-id="9673"></path><path d="M799.106782 520.939779c-8.149186 0.12163-16.784891 4.743556-16.784891 14.960447v0.243259c-11.554816 140.360613-130.751871 250.313814-271.477373 250.313814-149.726096 0-271.477373-122.602684-271.477372-273.423447 0-66.896306 24.569189-131.238389 69.085639-181.228174 44.273192-49.746526 105.209645-81.856753 171.497803-90.249199 7.784297-1.581185 15.203706-7.905927 13.500891-16.541632-1.581185-8.149186-7.419408-13.86578-13.98741-13.865779-0.851408 0-1.702815 0.12163-2.554222 0.243259h-0.24326c-74.315714 8.270816-142.671576 43.421784-192.296472 98.884903C234.745219 365.861979 207.378549 437.86673 207.378549 513.033852c0 80.762086 31.623708 156.780615 89.154531 214.311438s133.549353 89.154531 214.311438 89.154532c76.140159 0 149.239577-28.582967 205.797363-80.397197 56.557786-51.81423 91.222235-122.359425 97.668607-198.377955-0.12163-9.000594-5.594964-15.082076-15.203706-16.784891z" p-id="9674"></path><path d="M479.34244 208.959734h-0.729778 1.094667c-0.12163 0.12163-0.243259 0-0.364889 0z" p-id="9675"></path></svg>