<?xml version="1.0" standalone="no"?><!DOCTYPE svg PUBLIC "-//W3C//DTD SVG 1.1//EN" "http://www.w3.org/Graphics/SVG/1.1/DTD/svg11.dtd"><svg t="1534949297885" class="icon" style="" viewBox="0 0 1024 1024" version="1.1" xmlns="http://www.w3.org/2000/svg" p-id="9892" xmlns:xlink="http://www.w3.org/1999/xlink" width="200" height="200"><defs><style type="text/css"></style></defs><path d="M830.2 611.4L533.5 368c-0.5-0.5-1.2-0.7-1.7-1.1-0.1-0.1-0.2-0.3-0.3-0.4-12.3-12.2-32.2-12.1-44.4 0.2L193.7 613.2c-12.2 12.3-12.1 32.2 0.2 44.4 6.1 6.1 14.1 9.1 22.1 9.1 8.1 0 16.2-3.1 22.3-9.3l271.6-224.5L786 656c6.1 6.1 14.1 9.1 22.1 9.1 8.1 0 16.2-3.1 22.3-9.3 12.2-12.3 12.1-32.2-0.2-44.4z" p-id="9893"></path></svg>