<?xml version="1.0" standalone="no"?><!DOCTYPE svg PUBLIC "-//W3C//DTD SVG 1.1//EN" "http://www.w3.org/Graphics/SVG/1.1/DTD/svg11.dtd"><svg t="1535600745059" class="icon" style="" viewBox="0 0 1024 1024" version="1.1" xmlns="http://www.w3.org/2000/svg" p-id="2914" xmlns:xlink="http://www.w3.org/1999/xlink" width="200" height="200"><defs><style type="text/css"></style></defs><path d="M976.4352 512A462.2848 462.2848 0 0 1 906.24 757.248a22.6304 22.6304 0 1 1-38.4512-23.9616A419.328 419.328 0 1 0 773.12 840.0384a22.6304 22.6304 0 1 1 28.2112 35.4304 464.4352 464.4352 0 1 1 175.2576-363.52zM686.592 334.1824a22.6304 22.6304 0 0 0-32.0512 0.3072L512 479.6416 369.408 334.4896a22.6304 22.6304 0 1 0-32.3072 31.744L480.256 512l-143.36 145.7664a22.6304 22.6304 0 0 0 32.3072 31.744L512 544.3584l142.592 145.2032a22.6304 22.6304 0 0 0 32.3072-31.744L543.744 512l143.36-145.7664a22.6304 22.6304 0 0 0-0.512-32.0512z" fill="#8a8a8a" p-id="2915"></path></svg>