<?xml version="1.0" standalone="no"?><!DOCTYPE svg PUBLIC "-//W3C//DTD SVG 1.1//EN" "http://www.w3.org/Graphics/SVG/1.1/DTD/svg11.dtd"><svg t="1535082581398" class="icon" style="" viewBox="0 0 1024 1024" version="1.1" xmlns="http://www.w3.org/2000/svg" p-id="9431" xmlns:xlink="http://www.w3.org/1999/xlink" width="200" height="200"><defs><style type="text/css"></style></defs><path d="M587.946667 539.306667a59.733333 59.733333 0 0 1-7.68 12.8l-470.186667 453.973333a64 64 0 0 1-85.333333-92.16L442.026667 512 19.626667 110.08A64 64 0 0 1 107.52 17.066667l470.186667 444.586666a63.146667 63.146667 0 0 1 12.8 73.386667z m426.666666 0a59.733333 59.733333 0 0 1-7.68 12.8l-470.186666 453.973333a64 64 0 0 1-85.333334-92.16L868.693333 512 446.293333 110.08A64 64 0 0 1 534.186667 17.066667l470.186666 444.586666a63.146667 63.146667 0 0 1 12.8 73.386667z" fill="#cdcdcd" p-id="9432"></path></svg>