<?xml version="1.0" standalone="no"?><!DOCTYPE svg PUBLIC "-//W3C//DTD SVG 1.1//EN" "http://www.w3.org/Graphics/SVG/1.1/DTD/svg11.dtd"><svg t="1535082537910" class="icon" style="" viewBox="0 0 1032 1024" version="1.1" xmlns="http://www.w3.org/2000/svg" p-id="9093" xmlns:xlink="http://www.w3.org/1999/xlink" width="201.5625" height="200"><defs><style type="text/css"></style></defs><path d="M9.2874 533.603336a62.478872 62.478872 0 0 1 12.664636-72.61058L484.63341 16.886182a63.323181 63.323181 0 0 1 84.430908 92.029689L153.664252 506.585446l415.400066 400.202502a63.323181 63.323181 0 1 1-84.430908 91.18538L21.107727 551.333827a59.101635 59.101635 0 0 1-11.820327-17.730491z m422.154538 0a62.478872 62.478872 0 0 1 12.664636-72.61058L906.787948 16.886182a63.323181 63.323181 0 0 1 84.430908 92.029689L575.81879 506.585446l415.400066 400.202502a63.323181 63.323181 0 1 1-84.430908 91.18538L443.262265 551.333827a59.101635 59.101635 0 0 1-11.820327-17.730491z" fill="#cdcdcd" p-id="9094"></path></svg>