<?xml version="1.0" standalone="no"?><!DOCTYPE svg PUBLIC "-//W3C//DTD SVG 1.1//EN" "http://www.w3.org/Graphics/SVG/1.1/DTD/svg11.dtd"><svg t="1534949329190" class="icon" style="" viewBox="0 0 1024 1024" version="1.1" xmlns="http://www.w3.org/2000/svg" p-id="10001" xmlns:xlink="http://www.w3.org/1999/xlink" width="200" height="200"><defs><style type="text/css"></style></defs><path d="M724.176 133.083c112.216 0 208.366 83.772 223.65 194.856 10.618 77.167-10.583 142.196-64.811 198.813-114.032 119.055-318.593 326.471-358.441 366.842-4.087 4.141-8.739 5.01-11.92 5.01-3.183 0-7.835-0.871-11.921-5.025-89.679-91.125-252.471-256.777-346.619-352.771-42.286-43.112-67.158-89.386-76.044-141.456-15.902-93.181 27.818-187.63 108.792-235.017 34.795-20.366 73.93-31.13 113.178-31.13 57.238 0 112.374 22.518 155.248 63.395 18.914 18.037 37.701 23.516 53.559 23.516 20.4 0 35.948-9.07 40.633-12.145 10.012-6.616 19.701-13.423 29.269-20.157 17.209-12.108 33.458-23.544 48.851-31.396 30.353-15.484 62.843-23.335 96.576-23.335m0-75.24c-43.446 0-87.651 9.893-129.591 31.285-29.443 15.021-55.836 36.276-85.234 55.705h0.003c-0.005 0-1.908-1.51-3.663-3.183-57.895-55.199-131.352-83.683-205.651-83.683-51.173 0-102.747 13.512-149.907 41.111C41.767 162.503-15.91 287.503 5.375 412.247c12.233 71.683 46.714 130.933 96.568 181.765 94.169 96.018 257.004 261.711 346.705 352.865 17.694 17.977 40.849 26.967 64.006 26.967 23.119 0 46.242-8.961 63.927-26.873 92.086-93.293 261.486-265.607 359.223-367.648 68.944-71.979 98.984-160.879 85.094-261.837C999.649 163.071 865.907 57.843 724.176 57.843z" fill="#666666" p-id="10002"></path></svg>